# xmcd
#
# Track frame offsets:
#	150
#	20414
#	37943
#	55100
#	73034
#	91045
#	111058
#	127039
#	146326
#	160063
#	173509
#
# Disc length: 2747 seconds
#
# Revision: 1
# Processed by: cddbd v1.5.2PL0 Copyright (c) Steve Scherf et al.
# Submitted via: audiograbber 1.83.01
#
DISCID=820ab90b
DTITLE=Watch Me Bleed - Souldrinker
DYEAR=2009
DGENRE=Death Metal
TTITLE0=Rise
TTITLE1=Bloodred Rain
TTITLE2=SixSixSeven
TTITLE3=Where darkness hides
TTITLE4=The end of everything
TTITLE5=Dead sky black sun
TTITLE6=The game is on
TTITLE7=Burn down hope
TTITLE8=All red roses die
TTITLE9=Jack Hammer
TTITLE10=The bleeding chalice
EXTD=
EXTT0=
EXTT1=
EXTT2=
EXTT3=
EXTT4=
EXTT5=
EXTT6=
EXTT7=
EXTT8=
EXTT9=
EXTT10=
PLAYORDER=
